<svg xmlns="http://www.w3.org/2000/svg" xmlns:xlink="http://www.w3.org/1999/xlink" width="500" zoomAndPan="magnify" viewBox="0 0 375 374.999991" height="500" preserveAspectRatio="xMidYMid meet" version="1.0"><defs><g><g id="id1"/></g></defs><path stroke-linecap="butt" transform="matrix(-0.0567396, -6.759364, 6.749762, -0.056659, 321.185873, 220.755103)" fill="none" stroke-linejoin="miter" d="M 0.000175033 0.000242516 L 10.985517 -0.00000876101 " stroke="rgb(27.059937%, 69.018555%, 61.959839%)" stroke-width="1" stroke-opacity="1" stroke-miterlimit="4"/><g fill="rgb(27.059937%, 69.018555%, 61.959839%)" fill-opacity="1"><g transform="translate(89.249999, 221.704116)"><g><path d="M 24.359375 -19.25 C 23.546875 -19.25 22.789062 -19.125 22.09375 -18.875 C 21.394531 -18.625 20.785156 -18.207031 20.265625 -17.625 C 19.742188 -17.050781 19.328125 -16.300781 19.015625 -15.375 C 18.710938 -14.445312 18.5625 -13.304688 18.5625 -11.953125 L 18.5625 -6.84375 L 24.015625 -6.84375 C 26.253906 -6.84375 27.769531 -7.34375 28.5625 -8.34375 C 29.351562 -9.351562 29.75 -10.84375 29.75 -12.8125 C 29.75 -14.820312 29.285156 -16.394531 28.359375 -17.53125 C 27.429688 -18.675781 26.097656 -19.25 24.359375 -19.25 Z M 45.1875 -1.625 C 45.1875 -1.3125 45.054688 -0.960938 44.796875 -0.578125 C 44.546875 -0.191406 44.148438 0 43.609375 0 L 41.40625 0 C 39.78125 0 38.320312 -0.453125 37.03125 -1.359375 C 35.738281 -2.265625 34.742188 -3.335938 34.046875 -4.578125 C 32.890625 -2.953125 31.375 -1.78125 29.5 -1.0625 C 27.625 -0.351562 25.46875 0 23.03125 0 L 10.265625 0 C 9.023438 0 8.101562 0.351562 7.5 1.0625 C 6.90625 1.78125 6.609375 3.128906 6.609375 5.109375 L 6.609375 19.375 L 0 19.375 L 0 3.484375 C 0 0.078125 0.90625 -2.492188 2.71875 -4.234375 C 4.539062 -5.972656 6.898438 -6.84375 9.796875 -6.84375 L 11.890625 -6.84375 L 11.890625 -12.53125 C 11.890625 -14.1875 12.171875 -15.816406 12.734375 -17.421875 C 13.296875 -19.035156 14.097656 -20.457031 15.140625 -21.6875 C 16.179688 -22.925781 17.460938 -23.921875 18.984375 -24.671875 C 20.515625 -25.429688 22.25 -25.8125 24.1875 -25.8125 C 26.082031 -25.8125 27.78125 -25.488281 29.28125 -24.84375 C 30.789062 -24.207031 32.078125 -23.328125 33.140625 -22.203125 C 34.203125 -21.085938 35.015625 -19.738281 35.578125 -18.15625 C 36.140625 -16.570312 36.421875 -14.847656 36.421875 -12.984375 L 36.421875 -11.375 C 36.421875 -11.0625 36.457031 -10.644531 36.53125 -10.125 C 36.613281 -9.601562 36.828125 -9.085938 37.171875 -8.578125 C 37.523438 -8.078125 38.039062 -7.644531 38.71875 -7.28125 C 39.394531 -6.914062 40.3125 -6.734375 41.46875 -6.734375 L 43.609375 -6.734375 C 44.191406 -6.734375 44.597656 -6.578125 44.828125 -6.265625 C 45.066406 -5.953125 45.1875 -5.582031 45.1875 -5.15625 Z M 45.1875 -1.625 "/></g></g></g><g fill="rgb(27.059937%, 69.018555%, 61.959839%)" fill-opacity="1"><g transform="translate(132.689113, 221.704116)"><g><path d="M -0.171875 0 C -0.828125 0 -1.25 -0.148438 -1.4375 -0.453125 C -1.632812 -0.765625 -1.734375 -1.117188 -1.734375 -1.515625 L -1.734375 -4.9375 C -1.734375 -5.351562 -1.609375 -5.753906 -1.359375 -6.140625 C -1.109375 -6.535156 -0.710938 -6.734375 -0.171875 -6.734375 L 5.390625 -6.734375 C 6.242188 -6.734375 6.816406 -7.003906 7.109375 -7.546875 C 7.398438 -8.085938 7.546875 -8.820312 7.546875 -9.75 L 7.546875 -41.53125 L 14.203125 -41.53125 L 14.203125 -12.0625 C 14.203125 -10.519531 14.5625 -9.242188 15.28125 -8.234375 C 16 -7.234375 17.34375 -6.734375 19.3125 -6.734375 L 21.34375 -6.734375 C 22 -6.734375 22.421875 -6.578125 22.609375 -6.265625 C 22.804688 -5.953125 22.90625 -5.582031 22.90625 -5.15625 L 22.90625 -1.625 C 22.90625 -1.3125 22.78125 -0.960938 22.53125 -0.578125 C 22.28125 -0.191406 21.882812 0 21.34375 0 L 19.078125 0 C 17.421875 0 16.078125 -0.394531 15.046875 -1.1875 C 14.023438 -1.976562 13.242188 -2.859375 12.703125 -3.828125 C 12.046875 -2.546875 11.117188 -1.585938 9.921875 -0.953125 C 8.722656 -0.316406 7.3125 0 5.6875 0 Z M -0.171875 0 "/></g></g></g><g fill="rgb(27.059937%, 69.018555%, 61.959839%)" fill-opacity="1"><g transform="translate(153.857706, 221.704116)"><g><path d="M -0.109375 0 C -0.734375 0 -1.160156 -0.148438 -1.390625 -0.453125 C -1.617188 -0.765625 -1.734375 -1.117188 -1.734375 -1.515625 L -1.734375 -4.9375 C -1.734375 -5.351562 -1.597656 -5.753906 -1.328125 -6.140625 C -1.054688 -6.535156 -0.648438 -6.734375 -0.109375 -6.734375 L 10.03125 -6.734375 C 10.925781 -6.734375 11.523438 -6.960938 11.828125 -7.421875 C 12.140625 -7.890625 12.296875 -8.601562 12.296875 -9.5625 L 12.296875 -17.6875 L 18.796875 -17.6875 L 18.796875 -12.0625 C 18.796875 -10.59375 19.160156 -9.335938 19.890625 -8.296875 C 20.628906 -7.253906 21.984375 -6.734375 23.953125 -6.734375 L 25 -6.734375 C 25.882812 -6.734375 26.460938 -7.003906 26.734375 -7.546875 C 27.003906 -8.085938 27.140625 -8.820312 27.140625 -9.75 L 27.140625 -19.953125 L 33.8125 -19.953125 L 33.8125 -12.0625 C 33.8125 -10.519531 34.175781 -9.242188 34.90625 -8.234375 C 35.644531 -7.234375 36.984375 -6.734375 38.921875 -6.734375 L 40.3125 -6.734375 C 41.238281 -6.734375 41.847656 -7.003906 42.140625 -7.546875 C 42.429688 -8.085938 42.578125 -8.820312 42.578125 -9.75 L 42.578125 -23.078125 L 49.125 -23.078125 L 49.125 -12.0625 C 49.125 -10.519531 49.476562 -9.242188 50.1875 -8.234375 C 50.90625 -7.234375 52.234375 -6.734375 54.171875 -6.734375 L 56.546875 -6.734375 C 57.171875 -6.734375 57.597656 -6.578125 57.828125 -6.265625 C 58.054688 -5.953125 58.171875 -5.582031 58.171875 -5.15625 L 58.171875 -1.625 C 58.171875 -1.3125 58.046875 -0.960938 57.796875 -0.578125 C 57.546875 -0.191406 57.148438 0 56.609375 0 L 54.171875 0 C 52.429688 0 51.046875 -0.382812 50.015625 -1.15625 C 48.992188 -1.925781 48.210938 -2.816406 47.671875 -3.828125 C 47.015625 -2.585938 46.03125 -1.640625 44.71875 -0.984375 C 43.40625 -0.328125 41.9375 0 40.3125 0 L 38.75 0 C 37.007812 0 35.644531 -0.382812 34.65625 -1.15625 C 33.664062 -1.925781 32.921875 -2.796875 32.421875 -3.765625 C 31.679688 -2.492188 30.671875 -1.546875 29.390625 -0.921875 C 28.117188 -0.304688 26.769531 0 25.34375 0 L 23.84375 0 C 22.175781 0 20.828125 -0.382812 19.796875 -1.15625 C 18.773438 -1.925781 18.015625 -2.796875 17.515625 -3.765625 C 16.773438 -2.492188 15.738281 -1.546875 14.40625 -0.921875 C 13.070312 -0.304688 11.59375 0 9.96875 0 Z M -0.109375 0 "/></g></g></g><g fill="rgb(27.059937%, 69.018555%, 61.959839%)" fill-opacity="1"><g transform="translate(210.287958, 221.704116)"><g><path d="M 17.453125 -6.375 C 19.304688 -6.375 20.671875 -6.925781 21.546875 -8.03125 C 22.421875 -9.132812 22.859375 -10.5 22.859375 -12.125 C 22.859375 -13.125 22.703125 -14.03125 22.390625 -14.84375 C 22.078125 -15.65625 21.675781 -16.351562 21.1875 -16.9375 C 20.707031 -17.519531 20.140625 -17.960938 19.484375 -18.265625 C 18.828125 -18.578125 18.148438 -18.734375 17.453125 -18.734375 C 16.722656 -18.734375 16.03125 -18.578125 15.375 -18.265625 C 14.71875 -17.960938 14.144531 -17.519531 13.65625 -16.9375 C 13.175781 -16.351562 12.789062 -15.65625 12.5 -14.84375 C 12.207031 -14.03125 12.0625 -13.125 12.0625 -12.125 C 12.0625 -10.5 12.492188 -9.132812 13.359375 -8.03125 C 14.234375 -6.925781 15.597656 -6.375 17.453125 -6.375 Z M -0.171875 0 C -0.753906 0 -1.160156 -0.148438 -1.390625 -0.453125 C -1.617188 -0.765625 -1.734375 -1.117188 -1.734375 -1.515625 L -1.734375 -4.9375 C -1.734375 -5.351562 -1.609375 -5.753906 -1.359375 -6.140625 C -1.109375 -6.535156 -0.710938 -6.734375 -0.171875 -6.734375 L 2.09375 -6.734375 C 2.507812 -6.734375 2.929688 -6.800781 3.359375 -6.9375 C 3.785156 -7.070312 4.160156 -7.34375 4.484375 -7.75 C 4.816406 -8.15625 5.078125 -8.710938 5.265625 -9.421875 C 5.460938 -10.140625 5.5625 -11.0625 5.5625 -12.1875 C 5.5625 -14.039062 5.859375 -15.75 6.453125 -17.3125 C 7.054688 -18.875 7.890625 -20.222656 8.953125 -21.359375 C 10.023438 -22.503906 11.296875 -23.40625 12.765625 -24.0625 C 14.234375 -24.726562 15.816406 -25.0625 17.515625 -25.0625 C 21.265625 -25.0625 24.132812 -23.859375 26.125 -21.453125 C 28.113281 -19.054688 29.109375 -15.695312 29.109375 -11.375 C 29.109375 -11.019531 29.15625 -10.570312 29.25 -10.03125 C 29.351562 -9.488281 29.578125 -8.972656 29.921875 -8.484375 C 30.273438 -8.003906 30.789062 -7.59375 31.46875 -7.25 C 32.144531 -6.90625 33.0625 -6.734375 34.21875 -6.734375 L 36.3125 -6.734375 C 36.882812 -6.734375 37.296875 -6.578125 37.546875 -6.265625 C 37.804688 -5.953125 37.9375 -5.582031 37.9375 -5.15625 L 37.9375 -1.625 C 37.9375 -1.3125 37.800781 -0.960938 37.53125 -0.578125 C 37.257812 -0.191406 36.851562 0 36.3125 0 L 34.046875 0 C 32.421875 0 31 -0.40625 29.78125 -1.21875 C 28.5625 -2.03125 27.664062 -3.054688 27.09375 -4.296875 C 26.394531 -3.210938 25.65625 -2.359375 24.875 -1.734375 C 24.101562 -1.117188 23.3125 -0.664062 22.5 -0.375 C 21.6875 -0.0820312 20.835938 0.0976562 19.953125 0.171875 C 19.066406 0.253906 18.15625 0.296875 17.21875 0.296875 C 15.019531 0.296875 13.191406 -0.0859375 11.734375 -0.859375 C 10.285156 -1.640625 9.097656 -2.648438 8.171875 -3.890625 C 7.628906 -2.765625 6.851562 -1.832031 5.84375 -1.09375 C 4.84375 -0.363281 3.707031 0 2.4375 0 Z M -0.171875 0 "/></g></g></g><g fill="rgb(27.059937%, 69.018555%, 61.959839%)" fill-opacity="1"><g transform="translate(246.477561, 221.704116)"><g><path d="M -0.234375 0 C -0.816406 0 -1.210938 -0.148438 -1.421875 -0.453125 C -1.628906 -0.765625 -1.734375 -1.117188 -1.734375 -1.515625 L -1.734375 -4.9375 C -1.734375 -5.351562 -1.617188 -5.753906 -1.390625 -6.140625 C -1.160156 -6.535156 -0.773438 -6.734375 -0.234375 -6.734375 L 6.609375 -6.734375 L 6.609375 -41.53125 L 13.171875 -41.53125 L 13.171875 0 Z M -0.234375 0 "/></g></g></g><g fill="rgb(27.059937%, 69.018555%, 61.959839%)" fill-opacity="1"><g transform="translate(130.664058, 150.802622)"><g><path d="M 14.328125 0 C 13.085938 0 12.015625 0.171875 11.109375 0.515625 C 10.203125 0.867188 9.445312 1.34375 8.84375 1.9375 C 8.25 2.539062 7.796875 3.21875 7.484375 3.96875 C 7.171875 4.726562 7.015625 5.515625 7.015625 6.328125 C 7.015625 8.296875 7.679688 9.878906 9.015625 11.078125 C 10.347656 12.273438 12.347656 12.875 15.015625 12.875 C 15.484375 12.875 16.015625 12.832031 16.609375 12.75 C 17.210938 12.675781 17.800781 12.582031 18.375 12.46875 C 18.957031 12.351562 19.507812 12.226562 20.03125 12.09375 C 20.5625 11.957031 20.976562 11.832031 21.28125 11.71875 L 22.15625 17.75 C 21.84375 17.90625 21.382812 18.066406 20.78125 18.234375 C 20.1875 18.410156 19.503906 18.578125 18.734375 18.734375 C 17.960938 18.890625 17.140625 19.015625 16.265625 19.109375 C 15.398438 19.203125 14.5625 19.25 13.75 19.25 C 12.082031 19.25 10.425781 19.007812 8.78125 18.53125 C 7.144531 18.050781 5.675781 17.296875 4.375 16.265625 C 3.082031 15.242188 2.03125 13.9375 1.21875 12.34375 C 0.40625 10.757812 0 8.847656 0 6.609375 C 0 4.523438 0.351562 2.660156 1.0625 1.015625 C 1.78125 -0.628906 2.804688 -2.03125 4.140625 -3.1875 C 5.472656 -4.351562 7.066406 -5.234375 8.921875 -5.828125 C 10.785156 -6.429688 12.878906 -6.734375 15.203125 -6.734375 L 20.828125 -6.734375 C 20.285156 -7.546875 19.847656 -8.53125 19.515625 -9.6875 C 19.191406 -10.84375 18.953125 -12.019531 18.796875 -13.21875 C 18.367188 -16.78125 16.742188 -18.5625 13.921875 -18.5625 C 13.109375 -18.5625 12.09375 -18.441406 10.875 -18.203125 C 9.65625 -17.972656 8.484375 -17.585938 7.359375 -17.046875 L 5.6875 -23.3125 C 6.144531 -23.507812 6.738281 -23.722656 7.46875 -23.953125 C 8.207031 -24.179688 9.003906 -24.390625 9.859375 -24.578125 C 10.710938 -24.773438 11.59375 -24.941406 12.5 -25.078125 C 13.40625 -25.210938 14.304688 -25.28125 15.203125 -25.28125 C 16.859375 -25.28125 18.296875 -25.019531 19.515625 -24.5 C 20.734375 -23.976562 21.75 -23.242188 22.5625 -22.296875 C 23.375 -21.347656 24.007812 -20.21875 24.46875 -18.90625 C 24.9375 -17.59375 25.269531 -16.160156 25.46875 -14.609375 C 25.539062 -13.835938 25.644531 -13.066406 25.78125 -12.296875 C 25.914062 -11.523438 26.128906 -10.78125 26.421875 -10.0625 C 26.710938 -9.34375 27.085938 -8.675781 27.546875 -8.0625 C 28.015625 -7.445312 28.632812 -6.90625 29.40625 -6.4375 L 29.40625 0 Z M 12.578125 6.3125 C 12.578125 5.382812 12.914062 4.597656 13.59375 3.953125 C 14.269531 3.316406 15.113281 3 16.125 3 C 17.082031 3 17.898438 3.316406 18.578125 3.953125 C 19.253906 4.597656 19.59375 5.382812 19.59375 6.3125 C 19.59375 7.28125 19.253906 8.082031 18.578125 8.71875 C 17.898438 9.351562 17.082031 9.671875 16.125 9.671875 C 15.113281 9.671875 14.269531 9.351562 13.59375 8.71875 C 12.914062 8.082031 12.578125 7.28125 12.578125 6.3125 Z M 12.578125 6.3125 "/></g></g></g><g fill="rgb(27.059937%, 69.018555%, 61.959839%)" fill-opacity="1"><g transform="translate(162.851925, 150.802622)"><g><path d="M 4.34375 -41.53125 L 10.96875 -41.53125 L 10.96875 -6.734375 L 14.90625 -6.734375 C 15.519531 -6.734375 15.941406 -6.578125 16.171875 -6.265625 C 16.410156 -5.953125 16.53125 -5.582031 16.53125 -5.15625 L 16.53125 -1.625 C 16.53125 -1.3125 16.394531 -0.960938 16.125 -0.578125 C 15.851562 -0.191406 15.445312 0 14.90625 0 L 4.34375 0 Z M 4.34375 -41.53125 "/></g></g></g><g fill="rgb(27.059937%, 69.018555%, 61.959839%)" fill-opacity="1"><g transform="translate(177.640941, 150.802622)"><g><path d="M 11.65625 -6.734375 L 16.875 -6.734375 C 17.53125 -6.734375 18.109375 -6.925781 18.609375 -7.3125 C 19.117188 -7.695312 19.535156 -8.207031 19.859375 -8.84375 C 20.191406 -9.476562 20.441406 -10.226562 20.609375 -11.09375 C 20.785156 -11.96875 20.875 -12.890625 20.875 -13.859375 C 20.875 -15.328125 20.5 -16.523438 19.75 -17.453125 C 19 -18.378906 18.003906 -18.84375 16.765625 -18.84375 C 16.222656 -18.84375 15.660156 -18.71875 15.078125 -18.46875 C 14.492188 -18.21875 13.941406 -17.734375 13.421875 -17.015625 C 12.898438 -16.304688 12.472656 -15.3125 12.140625 -14.03125 C 11.816406 -12.757812 11.65625 -11.117188 11.65625 -9.109375 Z M 11.890625 0 L 11.890625 4.8125 C 11.890625 6.207031 12.070312 7.382812 12.4375 8.34375 C 12.800781 9.3125 13.265625 10.085938 13.828125 10.671875 C 14.390625 11.253906 15.019531 11.671875 15.71875 11.921875 C 16.414062 12.171875 17.09375 12.296875 17.75 12.296875 C 19.0625 12.296875 20.125 11.847656 20.9375 10.953125 C 21.75 10.066406 22.15625 9.046875 22.15625 7.890625 C 22.15625 7.304688 22.019531 6.664062 21.75 5.96875 C 21.476562 5.28125 21.117188 4.578125 20.671875 3.859375 C 20.234375 3.140625 19.710938 2.441406 19.109375 1.765625 C 18.515625 1.085938 17.882812 0.5 17.21875 0 Z M -0.171875 0 C -0.753906 0 -1.160156 -0.148438 -1.390625 -0.453125 C -1.617188 -0.765625 -1.734375 -1.117188 -1.734375 -1.515625 L -1.734375 -4.9375 C -1.734375 -5.351562 -1.609375 -5.753906 -1.359375 -6.140625 C -1.109375 -6.535156 -0.710938 -6.734375 -0.171875 -6.734375 L 5.6875 -6.734375 L 5.6875 -9.96875 C 5.6875 -12.445312 6.003906 -14.632812 6.640625 -16.53125 C 7.273438 -18.425781 8.125 -20.019531 9.1875 -21.3125 C 10.25 -22.613281 11.484375 -23.59375 12.890625 -24.25 C 14.304688 -24.90625 15.8125 -25.234375 17.40625 -25.234375 C 20.300781 -25.234375 22.617188 -24.320312 24.359375 -22.5 C 26.097656 -20.6875 26.96875 -18.132812 26.96875 -14.84375 C 26.96875 -13.1875 26.722656 -11.640625 26.234375 -10.203125 C 25.753906 -8.773438 25.207031 -7.617188 24.59375 -6.734375 L 32.1875 -6.734375 C 32.8125 -6.734375 33.238281 -6.578125 33.46875 -6.265625 C 33.695312 -5.953125 33.8125 -5.582031 33.8125 -5.15625 L 33.8125 -1.625 C 33.8125 -1.3125 33.6875 -0.960938 33.4375 -0.578125 C 33.1875 -0.191406 32.769531 0 32.1875 0 L 25.34375 0 C 26.15625 1.125 26.832031 2.351562 27.375 3.6875 C 27.914062 5.019531 28.1875 6.242188 28.1875 7.359375 C 28.1875 8.953125 27.9375 10.421875 27.4375 11.765625 C 26.9375 13.117188 26.21875 14.296875 25.28125 15.296875 C 24.351562 16.304688 23.242188 17.101562 21.953125 17.6875 C 20.660156 18.269531 19.21875 18.5625 17.625 18.5625 C 15.5 18.5625 13.691406 18.179688 12.203125 17.421875 C 10.710938 16.671875 9.492188 15.675781 8.546875 14.4375 C 7.609375 13.207031 6.925781 11.804688 6.5 10.234375 C 6.070312 8.671875 5.859375 7.054688 5.859375 5.390625 L 5.859375 0 Z M -0.171875 0 "/></g></g></g><g fill="rgb(27.059937%, 69.018555%, 61.959839%)" fill-opacity="1"><g transform="translate(209.712812, 150.802622)"><g><path d="M -0.171875 0 C -0.828125 0 -1.25 -0.148438 -1.4375 -0.453125 C -1.632812 -0.765625 -1.734375 -1.117188 -1.734375 -1.515625 L -1.734375 -4.9375 C -1.734375 -5.351562 -1.609375 -5.753906 -1.359375 -6.140625 C -1.109375 -6.535156 -0.710938 -6.734375 -0.171875 -6.734375 L 5.390625 -6.734375 C 6.242188 -6.734375 6.816406 -7.003906 7.109375 -7.546875 C 7.398438 -8.085938 7.546875 -8.820312 7.546875 -9.75 L 7.546875 -23.078125 L 14.15625 -23.078125 L 14.15625 -12.0625 C 14.15625 -10.519531 14.519531 -9.242188 15.25 -8.234375 C 15.988281 -7.234375 17.320312 -6.734375 19.25 -6.734375 L 21.28125 -6.734375 C 21.9375 -6.734375 22.363281 -6.578125 22.5625 -6.265625 C 22.757812 -5.953125 22.859375 -5.582031 22.859375 -5.15625 L 22.859375 -1.625 C 22.859375 -1.3125 22.726562 -0.960938 22.46875 -0.578125 C 22.21875 -0.191406 21.820312 0 21.28125 0 L 19.078125 0 C 17.378906 0 16.015625 -0.40625 14.984375 -1.21875 C 13.960938 -2.03125 13.179688 -2.921875 12.640625 -3.890625 C 11.984375 -2.765625 11.066406 -1.832031 9.890625 -1.09375 C 8.710938 -0.363281 7.3125 0 5.6875 0 Z M 7.5625 -32.125 C 7.5625 -33.0625 7.898438 -33.859375 8.578125 -34.515625 C 9.253906 -35.171875 10.078125 -35.5 11.046875 -35.5 C 12.054688 -35.5 12.898438 -35.171875 13.578125 -34.515625 C 14.253906 -33.859375 14.59375 -33.0625 14.59375 -32.125 C 14.59375 -31.195312 14.253906 -30.40625 13.578125 -29.75 C 12.898438 -29.09375 12.054688 -28.765625 11.046875 -28.765625 C 10.078125 -28.765625 9.253906 -29.09375 8.578125 -29.75 C 7.898438 -30.40625 7.5625 -31.195312 7.5625 -32.125 Z M 7.5625 -32.125 "/></g></g></g><g fill="rgb(27.059937%, 69.018555%, 61.959839%)" fill-opacity="1"><g transform="translate(230.823406, 150.802622)"><g><path d="M 17.578125 -6.375 C 19.390625 -6.375 20.726562 -6.9375 21.59375 -8.0625 C 22.46875 -9.1875 22.90625 -10.539062 22.90625 -12.125 C 22.90625 -13.125 22.75 -14.03125 22.4375 -14.84375 C 22.132812 -15.65625 21.738281 -16.351562 21.25 -16.9375 C 20.769531 -17.519531 20.210938 -17.960938 19.578125 -18.265625 C 18.941406 -18.578125 18.273438 -18.734375 17.578125 -18.734375 C 16.835938 -18.734375 16.140625 -18.578125 15.484375 -18.265625 C 14.828125 -17.960938 14.253906 -17.519531 13.765625 -16.9375 C 13.285156 -16.351562 12.898438 -15.65625 12.609375 -14.84375 C 12.328125 -14.03125 12.1875 -13.125 12.1875 -12.125 C 12.1875 -10.570312 12.597656 -9.222656 13.421875 -8.078125 C 14.253906 -6.941406 15.640625 -6.375 17.578125 -6.375 Z M -0.171875 0 C -0.753906 0 -1.160156 -0.148438 -1.390625 -0.453125 C -1.617188 -0.765625 -1.734375 -1.117188 -1.734375 -1.515625 L -1.734375 -4.9375 C -1.734375 -5.351562 -1.609375 -5.753906 -1.359375 -6.140625 C -1.109375 -6.535156 -0.710938 -6.734375 -0.171875 -6.734375 L 2.09375 -6.734375 C 4.488281 -6.734375 5.6875 -8.550781 5.6875 -12.1875 C 5.6875 -14.039062 5.984375 -15.757812 6.578125 -17.34375 C 7.179688 -18.925781 8.023438 -20.285156 9.109375 -21.421875 C 10.191406 -22.566406 11.457031 -23.457031 12.90625 -24.09375 C 14.351562 -24.738281 15.945312 -25.0625 17.6875 -25.0625 C 19.625 -25.0625 21.316406 -24.726562 22.765625 -24.0625 C 24.210938 -23.40625 25.410156 -22.5 26.359375 -21.34375 C 27.304688 -20.1875 28.007812 -18.796875 28.46875 -17.171875 C 28.9375 -15.546875 29.171875 -13.765625 29.171875 -11.828125 C 29.171875 -10.316406 28.96875 -8.847656 28.5625 -7.421875 C 28.15625 -5.992188 27.488281 -4.726562 26.5625 -3.625 C 25.632812 -2.519531 24.445312 -1.640625 23 -0.984375 C 21.550781 -0.328125 19.78125 0 17.6875 0 C 16.832031 0 15.976562 -0.046875 15.125 -0.140625 C 14.28125 -0.242188 13.441406 -0.4375 12.609375 -0.71875 C 11.785156 -1.007812 10.992188 -1.414062 10.234375 -1.9375 C 9.484375 -2.457031 8.796875 -3.125 8.171875 -3.9375 C 7.597656 -2.582031 6.796875 -1.585938 5.765625 -0.953125 C 4.742188 -0.316406 3.65625 0 2.5 0 Z M -0.171875 0 "/></g></g></g><path stroke-linecap="butt" transform="matrix(-0.000000000000041767, -9.076363, 8.999999, -0.000000000000041415, 289.094107, 165.91052)" fill="none" stroke-linejoin="miter" d="M 0.0000401103 -0.0000396796 L 2.149339 -0.0000396796 " stroke="rgb(83.529663%, 83.918762%, 83.529663%)" stroke-width="1" stroke-opacity="1" stroke-miterlimit="4"/><path stroke-linecap="butt" transform="matrix(-0.000000000000041767, -9.076363, 8.999999, -0.000000000000041415, 289.094107, 193.352126)" fill="none" stroke-linejoin="miter" d="M 0.0000620516 -0.0000396796 L 2.149361 -0.0000396796 " stroke="rgb(83.529663%, 83.918762%, 83.529663%)" stroke-width="1" stroke-opacity="1" stroke-miterlimit="4"/><path stroke-linecap="butt" transform="matrix(-0.000000000000041767, -9.076363, 8.999999, -0.000000000000041415, 289.094107, 220.793717)" fill="none" stroke-linejoin="miter" d="M 0.0000824065 -0.0000396796 L 2.149381 -0.0000396796 " stroke="rgb(83.529663%, 83.918762%, 83.529663%)" stroke-width="1" stroke-opacity="1" stroke-miterlimit="4"/><path stroke-linecap="butt" transform="matrix(0.000000000000000415, -6.776217, 6.75, 0.000000000000000413, 256.422146, 220.785468)" fill="none" stroke-linejoin="miter" d="M 0.000045992 -0.0000401573 L 11.623304 -0.0000401573 " stroke="rgb(27.059937%, 69.018555%, 61.959839%)" stroke-width="1" stroke-opacity="1" stroke-miterlimit="4"/><path fill="rgb(27.059937%, 69.018555%, 61.959839%)" d="M 248.429688 130.550781 C 244.078125 130.550781 240.554688 133.742188 240.554688 137.675781 C 240.554688 141.613281 244.078125 144.800781 248.429688 144.800781 C 252.777344 144.800781 256.304688 141.613281 256.304688 137.675781 C 256.304688 133.742188 252.777344 130.550781 248.429688 130.550781 " fill-opacity="1" fill-rule="nonzero"/><path stroke-linecap="round" transform="matrix(0.000000000000000139, -2.278101, 2.25, 0.000000000000000138, 243.608542, 121.554966)" fill="none" stroke-linejoin="miter" d="M 0.500814 0.000370176 L 5.75807 0.000370176 " stroke="rgb(27.059937%, 69.018555%, 61.959839%)" stroke-width="1" stroke-opacity="1" stroke-miterlimit="4"/><path stroke-linecap="round" transform="matrix(1.290172, -1.877552, 1.854391, 1.274258, 256.714411, 122.107842)" fill="none" stroke-linejoin="miter" d="M 0.500367 -0.000321043 L 5.758334 0.000472562 " stroke="rgb(27.059937%, 69.018555%, 61.959839%)" stroke-width="1" stroke-opacity="1" stroke-miterlimit="4"/><path stroke-linecap="round" transform="matrix(1.87202, -1.298186, 1.282172, 1.848928, 265.507691, 130.504518)" fill="none" stroke-linejoin="miter" d="M 0.50057 0.000424063 L 5.756991 0.000203186 " stroke="rgb(27.059937%, 69.018555%, 61.959839%)" stroke-width="1" stroke-opacity="1" stroke-miterlimit="4"/><path stroke-linecap="round" transform="matrix(2.278101, 0, 0, 2.25, 265.617174, 141.208512)" fill="none" stroke-linejoin="miter" d="M 0.500697 -0.000658257 L 5.757953 -0.000658257 " stroke="rgb(27.059937%, 69.018555%, 61.959839%)" stroke-width="1" stroke-opacity="1" stroke-miterlimit="4"/></svg>